PathFileType	4	(X/Y/Z)	E:\3-PhD\Data\MocapData\ElaboratedData\012\pre\dynamicElaborations\Run_baselineB1\Run_baselineB1.trc
DataRate	CameraRate	NumFrames	NumMarkers	Units	OrigDataRate	OrigDataStartFrame	OrigNumFrames
200	200	4	56	mm	200	638	93
Frame#	Time	FHD			LBHD			RBHD			C7			T10			CLAV			LSHO			LUUPA			LMUPA			LDUPA			LLEP			LMEP			LRAD			LUL			LRFIN			RSHO			RUPA1			RMUPA			RDUPA			RLEP			RMEP			RRAD			RUL			RUFIN			LASI			RASI			USACR			LSACR			RSACR			LTHI1			LTHI2			LTHI3			LTHI4			LLFC			LTIB1			LTIB2			LTIB3			LTIB4			LHEE			LMT1			LMT5			LMT2			RTHI			RTHI2			RTHI3			RTHI4			RLFC			RTIB1			RTIB2			RTIB3			RTIB4			RLMAL			RHEE			RMT1			RMT2			RMT5		
		X1	Y1	Z1	X2	Y2	Z2	X3	Y3	Z3	X4	Y4	Z4	X5	Y5	Z5	X6	Y6	Z6	X7	Y7	Z7	X8	Y8	Z8	X9	Y9	Z9	X10	Y10	Z10	X11	Y11	Z11	X12	Y12	Z12	X13	Y13	Z13	X14	Y14	Z14	X15	Y15	Z15	X16	Y16	Z16	X17	Y17	Z17	X18	Y18	Z18	X19	Y19	Z19	X20	Y20	Z20	X21	Y21	Z21	X22	Y22	Z22	X23	Y23	Z23	X24	Y24	Z24	X25	Y25	Z25	X26	Y26	Z26	X27	Y27	Z27	X28	Y28	Z28	X29	Y29	Z29	X30	Y30	Z30	X31	Y31	Z31	X32	Y32	Z32	X33	Y33	Z33	X34	Y34	Z34	X35	Y35	Z35	X36	Y36	Z36	X37	Y37	Z37	X38	Y38	Z38	X39	Y39	Z39	X40	Y40	Z40	X41	Y41	Z41	X42	Y42	Z42	X43	Y43	Z43	X44	Y44	Z44	X45	Y45	Z45	X46	Y46	Z46	X47	Y47	Z47	X48	Y48	Z48	X49	Y49	Z49	X50	Y50	Z50	X51	Y51	Z51	X52	Y52	Z52	X53	Y53	Z53	X54	Y54	Z54	X55	Y55	Z55	X56	Y56	Z56	
638	3.185000	-3080.126655	1727.323049	442.232576	-3233.834624	1712.141156	336.492616	-3224.317890	1703.355145	488.926004	-3293.267631	1554.206202	401.494202	-3468.414288	1246.794864	364.259950	-3174.618844	1437.586067	415.850858	-3165.929864	1564.653871	296.900635	-3127.380648	1378.502271	163.534949	-3096.075554	1352.281960	190.349961	-3118.538160	1309.689112	152.941173	-3091.807613	1222.450964	156.414176	-3172.112098	1195.564356	191.436813	-2997.402722	1178.338467	419.084092	-2958.191748	1132.739369	371.508665	-2924.604464	1170.974714	470.690711	-3222.493014	1496.477981	576.988287	-3438.485640	1460.423424	663.718202	-3438.121607	1413.058032	679.220228	-3498.908947	1421.777795	671.914611	-3560.649342	1386.373504	686.114207	-3572.847923	1348.780951	622.212707	-3497.403082	1122.403314	790.396505	-3563.589742	1131.814406	829.821650	-3485.983208	1049.997211	845.113599	-3417.692990	983.229988	242.226007	-3383.218459	1002.004733	471.875480	-3536.671573	1125.072418	380.603816	-3564.406620	1098.158648	349.767615	-3559.834554	1098.661192	405.283442	-3627.976985	792.365986	184.547294	-3630.740100	705.739186	180.571126	-3587.765766	686.403155	187.662799	-3680.251569	672.674155	188.124234	-3769.578246	540.821091	197.368259	-3882.327435	382.153785	254.556271	-3939.126941	389.091401	191.358503	-3920.627979	357.489264	216.084787	-3978.962017	307.299914	245.497292	-4174.088928	283.318971	284.486422	-4085.363323	95.411362	270.649771	-4128.527363	116.810883	187.470350	-4089.311175	92.482159	221.815819	-3338.370999	767.883253	544.554680	-3271.546743	756.900036	542.644960	-3244.019672	782.659825	542.017046	-3239.952127	678.970582	525.736881	-3179.654497	589.819132	510.613479	-3170.207892	463.876007	455.796377	-3259.279107	413.011159	491.657648	-3223.104374	395.300602	471.030356	-3234.102409	353.694207	433.038084	-3359.829359	214.089061	412.356772	-3415.284523	184.656460	367.489857	-3195.341408	160.267582	349.560412	-3194.894001	157.564361	392.933402	-3236.924118	131.247886	439.629912	
639	3.190000	-3051.704249	1729.672056	443.761438	-3205.404823	1714.266509	338.124607	-3195.686575	1705.508312	490.657502	-3264.400415	1556.358429	402.337481	-3438.736422	1248.991929	360.909442	-3146.052969	1440.039347	417.339355	-3136.274246	1566.687791	298.476509	-3099.643615	1381.117084	163.293624	-3068.572956	1354.151845	189.743949	-3091.756709	1312.347476	151.951055	-3066.285405	1224.235609	154.747519	-3147.276335	1198.709026	188.928417	-2974.430608	1168.897581	416.319147	-2936.578214	1123.666491	367.491908	-2902.094558	1156.999850	467.926531	-3195.688815	1497.891860	578.103132	-3411.791874	1456.687093	664.600084	-3410.621612	1408.843146	679.157511	-3471.092390	1416.813676	672.384958	-3532.137087	1379.499652	685.471951	-3543.712381	1342.972085	620.253783	-3460.398553	1115.492826	783.459778	-3526.106216	1122.156526	824.088137	-3446.532435	1042.375198	836.505241	-3385.081877	984.843025	241.016978	-3354.303808	1005.094794	470.456664	-3506.450998	1127.686308	376.041387	-3534.096262	1100.500215	344.482163	-3530.195271	1101.181930	400.420952	-3595.267608	793.374969	181.748312	-3598.386248	706.683464	179.559098	-3555.631355	687.379442	187.377570	-3648.284911	674.076632	186.650501	-3739.689569	543.820060	197.667733	-3857.496298	387.778103	255.562781	-3913.307373	396.655139	192.503294	-3895.229215	364.097252	216.851186	-3954.569562	315.579163	246.758415	-4147.592856	301.029082	287.084364	-4073.300006	105.209219	274.491045	-4115.696332	129.179374	191.963768	-4077.455983	101.877699	225.875357	-3312.657392	767.437615	544.902058	-3245.772107	755.220242	544.067127	-3217.698990	780.553668	544.257558	-3215.093605	677.267844	527.131841	-3153.716677	587.491506	513.174853	-3137.807507	461.264797	457.602522	-3224.380830	405.497758	492.002172	-3187.066387	389.708373	471.283048	-3195.059273	347.775581	432.644458	-3312.651466	201.529445	409.066031	-3365.508801	169.219927	363.029870	-3143.711965	158.342566	347.316113	-3143.844501	154.200138	390.411834	-3185.032828	123.937378	435.748410	
640	3.195000	-3023.188711	1731.920817	445.294050	-3176.915339	1716.295524	339.790796	-3167.055707	1707.432634	492.118879	-3235.438270	1558.406711	403.214734	-3409.132211	1251.324882	357.919630	-3117.476095	1442.293262	418.771148	-3106.482772	1568.368761	299.791895	-3072.272104	1383.318691	162.844119	-3041.581173	1355.504026	189.001377	-3065.508290	1314.594069	150.738347	-3041.498929	1225.590080	152.716637	-3123.180409	1201.652339	186.174928	-2952.052748	1158.044258	412.355987	-2915.780804	1113.311497	362.070246	-2880.226656	1141.218058	463.545255	-3168.857356	1499.013230	579.319920	-3385.125218	1451.838187	665.085524	-3382.910411	1403.780267	679.035883	-3443.115786	1410.625391	672.660663	-3503.071637	1371.337303	685.042179	-3514.156913	1335.948496	618.325376	-3422.293433	1107.607800	775.766858	-3487.491381	1111.232615	817.501684	-3405.777012	1033.837591	826.786555	-3352.533413	986.641647	240.029698	-3325.796067	1007.923316	469.207411	-3476.303064	1130.470703	371.858040	-3503.795266	1102.952548	339.647795	-3500.659569	1103.894267	395.953336	-3561.961047	793.791935	178.985314	-3565.057657	707.106983	178.384606	-3522.447285	688.004227	186.786856	-3615.116659	674.657377	185.045937	-3707.847741	545.466389	197.613762	-3831.147491	392.825419	256.827985	-3885.763256	403.632554	193.889553	-3868.190667	370.156557	218.031048	-3928.759654	323.860713	248.723853	-4119.733590	318.976866	290.118223	-4058.967893	116.910423	279.562282	-4100.427882	142.770292	197.485573	-4063.257541	113.079932	231.179023	-3287.422509	766.520362	545.403662	-3220.613197	752.864337	545.418279	-3191.923457	777.704663	546.339685	-3190.826393	674.933827	528.738957	-3128.906816	584.167497	515.336081	-3107.075466	458.064122	459.278383	-3191.387008	397.984806	491.891092	-3153.160916	383.967770	471.284966	-3158.125640	341.924617	432.180775	-3268.153351	190.201935	405.746089	-3318.342333	155.635909	358.441906	-3095.499761	156.473281	345.616359	-3096.303844	150.972416	388.322732	-3136.832260	117.229336	432.216679	
641	3.200000	-2994.594852	1734.043149	446.820728	-3148.381266	1718.210345	341.483079	-3138.438140	1709.100715	493.291748	-3206.400502	1560.320221	404.110885	-3379.622567	1253.773356	355.286658	-3088.902204	1444.326151	420.149373	-3076.573911	1569.662998	300.855909	-3045.213445	1385.100248	162.213751	-3015.062113	1356.346477	188.161793	-3039.720232	1316.433825	149.329971	-3017.362241	1226.565173	150.351373	-3099.729135	1204.394322	183.193831	-2930.339239	1145.943351	407.173877	-2895.764157	1101.932028	355.225689	-2859.152346	1123.881772	457.545739	-3141.995635	1499.834920	580.634332	-3358.436251	1445.922811	665.186949	-3354.922427	1397.907717	678.863914	-3414.954050	1403.206325	672.647173	-3473.410075	1361.925730	684.715472	-3484.097376	1327.752147	616.362317	-3383.069910	1098.923153	767.321449	-3447.728255	1099.235666	810.003699	-3363.706114	1024.609189	815.985304	-3320.043661	988.601809	239.254139	-3297.684264	1010.496944	468.135342	-3446.249982	1133.353763	368.026538	-3473.494147	1105.451103	335.277661	-3471.287376	1106.730093	391.815377	-3528.114520	793.616731	176.279018	-3530.834186	706.990890	177.081143	-3488.302419	688.242085	185.955509	-3580.841663	674.416841	183.337616	-3674.139165	545.731767	197.233072	-3803.117160	397.323542	258.312620	-3856.509751	409.973031	195.490109	-3839.543031	375.664645	219.671724	-3901.548986	332.158154	251.361632	-4090.591613	337.092587	293.403929	-4042.230791	130.345215	285.845036	-4082.582061	157.337322	203.966344	-4046.564633	125.902035	237.716505	-3262.607777	765.209711	545.989869	-3196.056054	749.968682	546.634837	-3166.713759	774.276326	548.232063	-3167.088860	672.101450	530.449660	-3105.130251	580.055422	517.070395	-3077.962995	454.378942	460.798467	-3160.341777	390.626754	491.321370	-3121.358558	378.208323	471.076270	-3123.397360	336.190978	431.649427	-3226.675018	180.106378	402.352847	-3274.178207	143.916832	353.666386	-3050.905195	154.391224	344.539338	-3052.527840	147.651425	386.754054	-3092.677557	110.954237	429.110803	
